<?xml version="1.0" encoding="UTF-8"?><svg id="Layer_5" xmlns="http://www.w3.org/2000/svg" width="16.969cm" height="11.44cm" viewBox="0 0 481.013 324.283"><defs><style>.cls-1{fill:none;stroke:red;stroke-miterlimit:10;}</style></defs><path class="cls-1" d="M342.898,100.064l-6.617,13.021c-.685,1.348-1.882,2.365-3.323,2.824l-1.495.476c-1.123.358-2.315.448-3.479.264l-.058-.009c-1.75-.276-3.483.515-4.408,2.015-1.626,2.637-4.199,6.809-5.906,9.577-1.079,1.75-3.024,2.763-5.077,2.651l-.975-.053c-2.934-.159-5.469-2.104-6.383-4.896l-1.019-5.361c-.397-2.09-2.274-3.569-4.399-3.466l-8.488.202c-2.23.053-4.145,1.599-4.667,3.768l-.795,3.301c-.705,2.93-3.267,5.039-6.279,5.167l-.661.028c-3.545.151-6.805-1.936-8.153-5.219l-5.038-12.273c-1.588-3.869-2.801-7.882-3.621-11.983l-.672-3.362c-.537-2.683-1.844-5.151-3.761-7.103l-8.018-8.161c-1.932-1.967-3.428-4.319-4.39-6.903l-.306-.822c-1.421-3.82-1.42-8.025.004-11.844l8.049-21.586c.425-1.14.469-2.388.124-3.555l-1.616-5.47c-.705-2.387-.772-4.918-.193-7.339l.708-2.96c.724-3.028,2.686-5.613,5.408-7.125l.581-.323c4.068-2.26,8.815-2.979,13.37-2.026h0c2.378.498,4.635,1.675,6.644,3.041h0c2.039,1.387,4.503,2.007,6.955,1.752l9.98-1.037c3.341-.347,6.64-2.599,8.323-5.506l.552-.953c1.397-2.414,3.87-4.009,6.645-4.286l.022-.002c3.418-.342,6.777,1.066,8.93,3.741l.785.975c2.349,2.919,5.994,4.086,9.485,2.723l.123-.048c2.64-1.03,5.575-.747,7.943.756,2.622,1.664,5.965,3.786,7.792,4.945.886.562,1.62,1.322,2.154,2.225l1.768,2.992c2.435,4.12,2.785,9.147.945,13.565l-3.205,7.696c-1.003,2.409-.36,5.189,1.599,6.913l.081.071c1.93,1.698,3.02,4.119,3.003,6.668-.014,2.169-.023,4.978-.03,7.776-.017,7.604-1.432,15.14-4.177,22.231l-4.764,12.306Z"/></svg>