<?xml version="1.0" encoding="UTF-8"?><svg id="Layer_4" xmlns="http://www.w3.org/2000/svg" width="16.969cm" height="11.44cm" viewBox="0 0 481.013 324.283"><path d="M257.731,30.813c-.53-1.176-.971-2.301-1.531-3.363-.743-1.411-.618-2.286.866-2.864,1.669-.65,2.212-1.793,2.149-3.435-.04-1.044-.07-2.092-.032-3.135.064-1.778.85-2.144,2.455-1.427,1.339.598,2.782.966,4.194,1.384.166.049.496-.186.637-.374.321-.429.585-.903.849-1.371.402-.714.951-.941,1.708-.571.064.031.141.085.201.073,2.975-.61,4.346,1.703,6.003,3.384.848.86,1.478,1.954,2.108,3.001.338.563.672.656,1.297.599,3.227-.292,6.461-.499,9.69-.773.515-.044,1.048-.204,1.513-.433,1.13-.558,2.215-1.206,3.334-1.786,1.435-.744,2.144-.388,2.446,1.192.06.313.11.629.186,1.061.86-.528,1.643-1.017,2.434-1.492.586-.352,1.143-.376,1.672.143.874.858,2.877.383,3.501-.674,1.738-2.947,3.422-5.94,5.387-8.733,1.911-2.715,3.492-2.531,5.456.156,1.076,1.472,2.328,2.817,3.493,4.224,1.352,1.634,2.697,3.274,4.046,4.911.156.189.318.373.441.517,2.855-1.437,5.652-2.844,8.449-4.252.258-.13.514-.262.776-.382,2.325-1.069,2.878-.79,3.348,1.683,1.681.264,1.747.345,1.548,1.974,1.333.26,2.674.497,4.002.791.558.124,1.104.336,1.631.565,1.319.573,1.522,1.105,1.018,2.47-.162.439-.331.881-.426,1.336-.232,1.103.169,1.606,1.306,1.722.573.058,1.147.121,1.716.209,1.679.26,2.412,1.368,1.792,2.949-.457,1.165-1.144,2.24-1.727,3.356-.398.763-.882,1.499-1.151,2.306-.129.388-.008,1.124.273,1.333.873.65.433,1.051-.101,1.523-.772.683-1.615,1.304-2.295,2.068-1.208,1.358-1.371,1.884-1.654,3.955.217-.025.427-.103.608-.059.32.078.841.18.882.362.07.308-.06.833-.297,1.007-.78.571-1.646,1.025-2.646,1.624.225.487.393,1.025.695,1.474,1.346,2.003,2.734,3.979,4.099,5.97.295.431.51.767,1.196.541,1.384-.457,2.061.255,1.718,1.695-.1.417-.249.823-.392,1.283,1.034.522.896,1.327.767,2.298-.177,1.337-.018,2.715-.062,4.074-.04,1.251-.154,2.499-.244,3.748-.036.5-.096.999-.143,1.484,1.392.906,1.46,1.321.57,2.699-.585.906-1.111,1.849-1.713,2.86.891.381.732.845.462,1.608-1.316,3.731-2.477,7.516-3.728,11.27-.644,1.932-1.362,3.84-2.053,5.756-.048.133-.118.284-.225.365-2.312,1.745-2.453,4.508-3.122,6.958-.99,3.63-2.838,6.763-5.071,9.698-.382.502-1.274.873-1.917.854-.857-.025-1-.946-1.028-1.673-.059-1.51-.037-3.023-.066-4.534-.005-.269-.095-.536-.216-1.179-1.1,1.035-2.004,1.872-2.894,2.724-1.063,1.018-2.148,2.017-3.156,3.087-.483.513-.853,1.148-1.204,1.767-1.886,3.322-3.678,6.7-5.656,9.965-.857,1.414-1.622,2.979-3.182,3.864-1.385.785-2.271.481-2.627-1.099-.427-1.894-.567-3.865-1.118-5.716-.706-2.369-1.682-4.659-2.594-6.963-.083-.21-.569-.407-.838-.374-3.358.41-6.713.848-10.064,1.316-.947.132-1.783.124-2.436-.722-.18-.234-.508-.394-.8-.494-2.484-.855-5.068-.547-7.617-.579-.215-.003-.534.518-.629.847-.107.374.072.828-.026,1.208-.821,3.173-1.659,6.342-2.531,9.502-.515,1.868-1.5,2.326-3.341,1.704-2.05-.692-3.162-2.31-3.879-4.158-2.331-6.007-4.505-12.074-6.854-18.074-.962-2.457-.866-5.012-1.202-7.534-.214-1.611-.685-3.189-1.058-4.778-.036-.153-.188-.385-.302-.395-1.112-.098-1.184-1.009-1.407-1.78-.213-.735-.618-1.176-1.355-1.503-2.9-1.287-5.073-3.368-6.469-6.24-.104-.214-.275-.445-.477-.554-1.309-.708-1.612-1.877-1.475-3.218.071-.699-.126-.999-.851-1.172-1.973-.471-2.223-.963-1.716-2.911.438-1.686.83-1.622-1.291-2.224-.069-.02-.138-.042-.207-.062-2.569-.773-2.776-1.177-1.223-3.327,2.12-2.936,2.8-6.447,4.092-9.71,1.604-4.05,3.067-8.156,4.661-12.211.856-2.178,1.852-4.302,2.797-6.445.805-1.826.123-3.596-1.706-4.403-.395-.174-.859-.294-1.147-.583-.375-.377-.795-.881-.834-1.36-.026-.322.568-.701.9-1.04.093-.095.24-.139.637-.359ZM326.623,32.581c-.863-.234-1.977-.308-2.836-.815-2.001-1.18-4.17-1.411-6.385-1.51-3.234-.145-6.475-.166-9.705-.37-1.528-.096-3.067-.379-4.546-.782-2.378-.648-2.852-1.765-1.924-4.049.302-.742.619-1.478.985-2.347-1.363-.008-2.652,1.026-3.505-.489-.46.281-.798.485-1.134.692-.368.227-.72.487-1.106.677-1.255.621-2.112.203-2.401-1.149-.072-.337-.124-.679-.22-1.21-1.269.747-2.371,1.417-3.496,2.046-.394.22-.838.465-1.269.485-2.514.117-5.039.078-7.545.281-1.485.12-2.948.563-4.409.909-.609.145-.964.02-1.144-.602-.83-2.87-2.759-4.9-5.099-6.606-.133-.097-.331-.169-.491-.157-.792.059-1.582.15-2.563.249.039-.084-.057.108-.139.307-.702,1.696-.974,1.817-2.782,1.276-1.336-.4-2.677-.786-4.081-1.198-.11,3.144.906,6.742-3.513,7.957,1.296,2.061,2.257,4.017,1.856,6.14,1.171.957,2.316,1.816,3.369,2.776.996.908,1.247,2.315.636,3.333-2.477,4.124-4.367,8.518-6.053,13.008-.646,1.72-1.26,3.453-1.909,5.172-.718,1.903-1.744,3.744-2.109,5.71-.334,1.798-1.115,3.128-2.334,4.341-.512.51-.997,1.047-1.546,1.626,4.183,1.341,4.462.958,3.535,5.289.365.108.737.218,1.108.329,1.621.488,1.782.804,1.616,2.467-.047.472.124,1.099.43,1.448.995,1.137,2.014,2.282,3.18,3.232,1.646,1.342,2.942,3.196,5.188,3.729.22.052.422.385.536.632.242.521.348,1.116.643,1.599.456.747.143,2.115,1.644,2.09.169-.003.44.474.5.763.147.703.304,1.431.267,2.139-.126,2.413.293,4.722.995,7.02.635,2.081,1.305,4.146,1.99,6.21,1.817,5.475,3.567,10.96,6.21,16.107.238.464.723.8,1.093,1.196.241-.296.482-.593.725-.888.046-.055.102-.102.156-.15.876-.792.94-1.776.798-2.878-.083-.643-.024-1.355.173-1.971.371-1.16.89-2.272,1.343-3.407.386-.967.7-1.972,1.182-2.888.169-.321.74-.599,1.132-.606,1.982-.037,3.975-.09,5.945.081,1.69.146,3.462.233,4.836,1.52.163.152.539.147.803.111,3.568-.485,7.135-.981,10.699-1.495.745-.107,1.333.042,1.81.664.53.691,1.007,1.513,1.711,1.953.6.375.879.759,1.004,1.379.433,2.154.873,4.306,1.31,6.459.131.645.265,1.289.398,1.933.321-.052.39-.179.465-.302,2.908-4.765,6.06-9.401,8.651-14.332,2.236-4.256,3.819-8.854,5.732-13.283.187-.433.667-.74,1.011-1.105.145.476.511,1.015.397,1.418-.409,1.447-.688,3.07-1.556,4.217-1.492,1.97-1.199,4.203-1.609,6.522.422-.372.74-.646,1.053-.928.802-.724,1.566-1.497,2.423-2.149.276-.21.858-.246,1.176-.097.228.107.272.648.357,1.005.078.329.081.676.154,1.006.261,1.179.558,2.35.798,3.533.088.435.054.894.075,1.342.118.036.235.072.353.108.765-1.522,1.683-2.987,2.269-4.574,2.473-6.693,4.914-13.399,7.228-20.148,1.046-3.051,1.764-6.214,2.643-9.322.066-.232.205-.454.351-.65.633-.854,1.281-1.696,1.924-2.543-.145-.019-.289-.038-.434-.057-.138-.716-.407-1.437-.384-2.148.033-1.037.273-2.069.427-3.102.135-.91.185-1.759-.584-2.506-.234-.227-.217-.844-.129-1.241.143-.641.44-1.248.671-1.865-1.265-.476-1.408-.776-1.026-1.902.201-.591.406-1.18.69-2.003-1.182.515-1.674-.015-2.135-.77-.835-1.367-1.743-2.691-2.673-4.113-.101.224-.158.289-.149.342.649,3.836,1.329,7.667,1.936,11.509.117.739.132,1.588-.113,2.277-2.011,5.666-4.321,11.203-7.033,16.582-.88,1.746-2.115,2.838-3.761,3.667-1.057.533-2.099,1.101-3.124,1.692-2.17,1.252-4.46,1.699-6.984,1.213.266-1.223,1.101-1.475,2.075-1.671,1.225-.247,2.475-.507,3.62-.986,1.351-.566,2.61-1.357,3.894-2.078.996-.559,2.082-1.005,2.572-2.189,2.398-5.793,4.82-11.576,7.208-17.372.169-.41.268-.926.186-1.352-.978-5.094-2.012-10.177-2.994-15.27-.222-1.152-.3-2.332-.444-3.499-.014-.276-.383-.463-.63-.753-2.741-3.231-6.234-5.778-8.55-9.395-.51-.797-1.017-1.596-1.59-2.494ZM318.885,27.79c.617-1.828,1.227-3.537,1.748-5.273.09-.3-.108-.79-.331-1.064-1.045-1.281-2.099-2.562-3.237-3.76-1.583-1.666-3.422-3.097-4.494-5.213-.231-.456-.672-.806-1.25-1.476-2.753,4.181-5.621,8.022-7.435,12.818.745-.358,1.208-.557,1.649-.796,1.843-.996,3.726-.875,5.506.03,2.017,1.026,3.949,2.22,5.898,3.375.705.418,1.35.938,1.947,1.358ZM329.184,32.068c.259.075.5.133.733.215,2.265.797,4.538,1.573,6.788,2.411,1.047.39,1.56,1.25,1.608,2.352.058,1.33.077,2.661.105,3.992.011.503.002,1.006.002,1.509.125.023.251.046.376.069.948-1.513,1.987-2.978,2.824-4.55,1.262-2.372,2.429-4.799,3.543-7.245.441-.968-.029-1.817-.977-1.966-1.737-.272-3.481-.57-5.232-.656-2.524-.125-5.056-.071-7.466-.093-.704,1.211-1.471,2.531-2.304,3.962ZM332.901,17.559c-2.509,1.239-4.896,2.418-7.283,3.596.005.106.01.212.015.318,1.075.378,2.131.822,3.228,1.119,2.275.618,2.657,1.087,2.49,3.428,3.134.968,6.331.016,9.428.379.259-1.233.492-2.342.77-3.662-1.644-.346-3.241-.772-4.865-.991-1.068-.144-1.65-.594-1.789-1.625-1.603-.036-1.739-.201-1.993-2.561ZM323.52,22.607c-.929,2.185-1.73,4.069-2.551,5.999,1.118.5,2.102,1.019,3.141,1.383.933.327,1.918.525,2.896.689.236.04.678-.218.777-.446.611-1.41,1.143-2.854,1.715-4.281.364-.908.112-1.347-.882-1.592-1.174-.29-2.292-.805-3.438-1.209-.619-.218-1.248-.409-1.658-.542ZM306.845,28.175c.667-.229,1.268-.249,1.423-.522.577-1.017,1.008-2.118,1.54-3.288-.515-.128-.94-.233-1.198-.297-.577,1.342-1.094,2.544-1.766,4.107ZM312.431,25.817c-.479-.284-.796-.472-1.206-.715-.477,1.007-.897,1.893-1.443,3.046,1.667-.171,1.784-1.494,2.648-2.331ZM332.357,34.896c-.636,1.064-.523,1.887.437,2.577.384-.729.741-1.408,1.134-2.155-.52-.139-1.059-.284-1.571-.422ZM306.898,24.414c-.093-.058-.186-.115-.279-.173-1.33.609-1.496,2.078-2.158,3.262.354.064.784.081.884-.092.562-.974,1.044-1.994,1.554-2.998ZM312.81,28.263c.818.136,1.442.24,2.056.343.493-1.217.327-1.486-1.206-1.974-.257.493-.516.99-.85,1.632ZM334.914,35.768c.238,1.386-1.119,2.481-.102,3.982.425-1.251.774-2.278,1.153-3.392-.245-.138-.54-.303-1.051-.59Z"/><path d="M310.846,37.759c.714.06,1.451.025,2.137.195,3.098.767,6.019,1.96,8.638,3.82,2.799,1.987,4.284,4.806,4.984,8.076.154.719.188,1.552-.018,2.244-1.016,3.42-2.877,6.102-6.592,7.023-.698.173-1.368.455-2.064.633-3.532.904-6.629.308-9.052-2.636-.501-.609-1.097-1.139-1.628-1.724-.362-.398-.814-.777-1.009-1.253-1.17-2.855-2.589-5.664-2.461-8.863.093-2.332.428-4.716,2.592-6.069,1.291-.807,2.898-1.11,4.363-1.639.037.064.074.129.11.193ZM315.912,44.634c.002-1.907-1.528-3.372-3.549-3.4-1.833-.025-3.557,1.533-3.565,3.222-.009,1.834,1.816,3.563,3.772,3.573,1.815.01,3.341-1.54,3.343-3.395ZM322.015,47.313c.014-1.419-.971-2.471-2.297-2.453-1.45.02-2.745,1.529-2.742,3.195.002,1.271.967,2.306,2.19,2.35,1.438.051,2.833-1.463,2.849-3.092Z"/><path d="M278.472,35.691c.855.116,1.727.158,2.561.36,3.402.823,5.019,3.653,4.292,7.287-.582,2.908-2.298,5.197-4.082,7.398-1.931,2.383-4.19,4.449-6.926,5.945-2.023,1.106-4.202,1.472-6.45,1.53-2.288.058-3.176-1.674-4.05-3.356-1.167-2.245-1.117-4.628-.428-6.947,1.334-4.491,3.51-8.434,8.159-10.275,2.216-.877,4.549-1.455,6.83-2.169.032.076.063.152.095.228ZM273.425,42.209c.126.542.304,1.345.502,2.143.351,1.41,2.259,2.139,3.365,1.197.839-.715,1.609-1.558,2.236-2.465.877-1.267.593-2.927-.519-4.048-.994-1.002-2.445-1.202-3.659-.417-1.183.765-1.864,1.867-1.926,3.59ZM269.839,45.213c1.628-.04,3.069-2.167,2.494-3.437-.072-.16-.471-.274-.698-.246-1.868.232-2.196.654-2.509,2.585-.14.866.132,1.131.713,1.098Z"/><path d="M288.07,73.763c-.232-1.178-.518-2.349-.679-3.537-.144-1.067-.299-2.169-.182-3.226.156-1.416-.484-2.466-1.104-3.61-.575-1.061-.997-2.212-1.405-3.352-.12-.337.039-.773.07-1.164.106-.023.212-.047.318-.07.545.812,1.058,1.649,1.643,2.431,1.578,2.11,1.592,2.103,3.87.734.924-.555,1.823-1.154,2.77-1.665.247-.133.632-.011.953-.007-.023.337.085.794-.093.991-.746.823-1.466,1.76-2.4,2.305-2.31,1.348-3.101,3.248-2.774,5.828.129,1.02-.031,2.087-.139,3.124-.045.434-.296.847-.454,1.27-.131-.017-.262-.035-.394-.052Z"/><path d="M254.031,68.776c-.777-.225-1.204-.919-.769-1.336.682-.656,1.495-1.221,2.343-1.641.547-.271,1.181.493.796.929-.685.775-1.569,1.375-2.37,2.048Z"/><path d="M331.554,70.513c.713.376,1.359.654,1.922,1.049.178.125.267.632.158.836-.1.187-.539.309-.799.269-.522-.08-1.07-.213-1.52-.473-.337-.195-.539-.624-.801-.949.316-.222.633-.444,1.041-.73Z"/><path d="M334.15,69.01c-.727-.817-1.455-1.608-2.133-2.44-.067-.082.126-.474.29-.609.101-.083.434-.019.567.093.634.53,1.258,1.075,1.831,1.669.162.167.201.523.171.777-.016.131-.308.229-.727.511Z"/><path d="M328.769,80.035c-.56.388-1.069.832-1.137.773-.494-.433-.948-.938-1.286-1.498-.056-.093.515-.565.796-.861.475.463.949.926,1.627,1.586Z"/><path d="M258.873,71.178c-.5.568-.975,1.162-1.522,1.68-.104.098-.592-.028-.725-.194-.136-.169-.167-.59-.047-.768.335-.498.723-.993,1.195-1.351.18-.136.646.105.982.174.039.153.078.306.117.459Z"/><path d="M261.255,77.796c-.478.473-.766.758-1.055,1.043-.265-.361-.714-.709-.739-1.085-.021-.317.449-.667.702-1.003.31.296.619.593,1.091,1.044Z"/></svg>