<?xml version="1.0" encoding="UTF-8"?><svg id="Layer_2_copy_6" xmlns="http://www.w3.org/2000/svg" width="16.969cm" height="11.44cm" viewBox="0 0 481.013 324.283"><defs><style>.cls-1{fill:#0a0a0a;}.cls-2{fill:#fafafa;}</style></defs><path class="cls-1" d="M211.96,183.348c.036-6.218.034-12.45-.716-18.616-.467-3.839-.657-7.74-1.507-11.509-.606-2.682-1.073-5.43-2.042-8.02-1.891-5.054-3.253-10.27-4.867-15.409-1.763-5.614-4.217-10.961-6.348-16.432-2.243-5.757-3.435-11.706-3.468-17.888-.012-2.194.066-4.391-.137-6.581-.042-.451-.037-.8.536-1.016,1.16-.438,1.528-1.181,1.067-2.316-.534-1.314-.662-2.556-.192-3.927.309-.9.101-1.878-.212-2.788-.551-1.604-.763-3.201-.132-4.847.306-.798.294-1.662.205-2.506-.131-1.241-.969-2.006-2.191-2.07-.865-.045-1.269-.944-2.06-1.132-1.212-.147-2.444.149-3.648-.168h-3.85c-.306.534-.831.307-1.261.335-2.758.177-5.518.311-8.275.5-.563.039-1.131.207-1.666.403-.593.217-.947.692-.828,1.348.268,1.463.107,2.872-.41,4.255-.216.578-.303,1.185-.269,1.793.111,1.988.344,3.969.307,5.964-.004.199.011.426.103.594.429.791.814,1.411-.038,2.344-.624.683.35,3.046,1.422,3.8.659.464.756.913.549,1.615-.321,1.089-.003,2.209-.081,3.321-.222,3.2-.518,6.389-1.032,9.554-.603,3.709-2.27,7.05-3.687,10.476-1.187,2.868-2.751,5.602-3.544,8.607-1.269,4.809-3.282,9.338-5.103,13.927-.823,2.074-1.671,4.126-2.123,6.286-1.214,5.801-2.692,11.551-3.432,17.448-.301,2.4-.978,4.66-1.148,7.076-.093,1.32-.112,2.644-.181,3.965-.1,1.917-.51,3.763-.655,5.665-.153,2.018.037,4.041.06,6.06.031,2.704-.279,5.409-.291,8.11-.017,3.779-.165,7.564-.027,11.337.364,9.923.612,19.846.619,29.776.005,6.079-.161,12.162.171,18.233.175,3.197.686,6.375,1.035,9.563.05.459.237.831.54,1.17,1.327,1.486,2.651,2.974,3.963,4.472.371.424.813.691,1.358.816,5.865,1.591,12.268,2.836,18.326,3.162.412.022.824.044,1.237.062,2.464.108,4.928.042,7.393-.048,2.774-.101,5.549-.233,8.326-.18,2.361.045,4.627-.453,6.858-1.146,1.274-.396,2.566-.838,3.807-1.221,1.522-.47,2.249-1.441,3.127-2.444.667-.761,1.234-1.611,1.921-2.352,1.239-1.338,1.831-2.814,1.804-4.704-.119-8.104-.113-16.21-.154-24.315-.023-4.661-.03-9.322-.078-13.982-.046-4.456.219-8.884.594-13.331.647-7.674.281-15.392.326-23.091ZM172.535,75.332c.044-.647.502-.98,1.114-1.102.507-.1,1.086-.189,1.066-.848-.019-.601-.559-.712-1.045-.72-.926-.014-.457-.712-.559-1.112-.151-.586.3-.581.671-.576,3.476.047,6.918-.582,10.193-.476,1.752-.247,3.299.025,4.85.02.948-.003,1.805.639,2.769.824.594.114.406.817.435,1.227.032.452-.53.304-.799.314-.597.022-1.196-.197-1.8.004-.49.163-.878.424-.774,1.01.099.562.566.607,1.021.602.564-.007,1.259-.326,1.653.072.349.353-.099.993-.071,1.528.062,1.157.301,2.273.651,3.368.245.765.263,1.499.022,2.279-.323,1.047-.361,2.133-.038,3.191.143.469-.003.666-.42.819-2.488.916-5.004,1.532-7.693,1.046-.787-.142-1.614-.096-2.422-.081-2.563.048-5.125.123-7.687.186-.265.007-.617.094-.721-.203-.141-.404-.238-.858.021-1.27.557-.889,1.077-1.793,2.374-1.719.497.028.951-.285.847-.893-.094-.554-.57-.647-1.028-.554-.841.172-1.289-.022-1.395-.982-.068-.615-.391-1.217-.669-1.791-.647-1.332-.661-2.743-.564-4.163ZM162.063,134.207c2.378-7.182,5.255-14.157,8.446-21.014,1.533-3.293,2.43-6.771,2.555-10.447.126-3.708.484-7.407.445-11.125-.013-1.247,1.483-2.463,2.877-2.465,1.046-.001,2.093,0,3.139,0,0-.012.001-.023.002-.035,3.505.16,7.01.333,10.516.468.513.02.647.193.584.659-.036.266-.008.54-.02.809-.119,2.864-.079,5.774.383,8.554,1.033,6.205,1.757,12.499,3.902,18.477.492,1.373,1.116,2.68,1.911,3.902.373.573.612,1.201.817,1.845,1.036,3.249,2.176,6.462,3.419,9.636.236.603.244.804-.532.93-1.705.276-3.425.324-5.127.547-.941.124-1.403-.136-1.795-.983-1.359-2.933-3.312-5.393-6.013-7.225-1.012-.686-2.064-1.054-3.325-.909-2.345.27-4.722.319-7.047.699-1.771.289-3.226,1.357-4.322,2.801-1.063,1.401-2.039,2.871-2.567,4.569-.202.65-.578.92-1.215,1.007-1.415.193-2.832.024-4.247.082-.706.029-1.411-.049-2.118.093-.749.15-.928-.098-.67-.878ZM158.245,144.878c.565-2.125.773-4.251,2.089-6.376-.018,0-.036.001-.054.001.031-.303.064-.541.114-.727.15-.558.454-.652,1.317-.664,2.124-.029,4.248-.032,6.371-.07.57-.01,1.14-.1,1.708-.164.658-.074,1.025-.388,1.291-1.062,1.051-2.669,2.654-5.011,5.172-6.434,2.641-1.492,5.57-2.051,8.604-1.462,1.67.324,2.845,1.524,3.954,2.7,1.276,1.352,2.335,2.875,3.152,4.566.561,1.159,1.755,2.079,3.294,1.882,2.07-.265,4.156-.41,6.217-.762.346-.059.638-.101.874.271.169.267.519.456.395.823.771,2.314,1.533,4.638,1.657,7.598.369.262.59.722.476,1.205-.085.358-.402.324-.65.333-4.309.159-8.601.759-12.923.51-.712-.041-1.132.326-1.539.797-2.009,2.322-4.429,3.923-7.533,4.374-2.266.329-4.341-.035-6.253-1.374-1.576-1.103-3.247-2.065-4.272-3.793-.29-.489-.794-.647-1.409-.566-3.224.422-6.445.142-9.667-.08-.606-.042-1.221.017-1.82-.063-.309-.041-.957.345-.881-.392.038-.366.031-.821.315-1.071ZM153.467,167.906c.562-6.462,2.001-12.797,3.604-19.084.177-.694.548-.991,1.29-.957,2.831.131,5.668.372,8.493.275,2.004-.069,3.378.478,4.786,1.988,1.877,2.012,4.173,3.7,7.035,4.147,4.809.751,8.849-.805,12.106-4.375.581-.637,1.127-.786,1.983-.835,3.153-.181,6.349.395,9.465-.553.827-.252,1.736-.226,2.605-.347.559-.077.756.268.961.695.819,1.708,1.041,3.561,1.264,5.397.622,5.123,1.173,10.255,1.754,15.383.121,1.063-.193,1.975-.839,2.827-.517.682-1.29.458-1.928.694-2.136.788-4.358,1.141-6.606,1.431-4.659.6-9.344.762-14,.985-5.885-.346-11.749-.498-17.587-1.188-3.822-.452-7.609-.976-11.332-1.983-2.985-.807-3.284-1.848-3.054-4.499ZM209.255,255.51c-.018,2.105-.466,4.058-1.848,5.75-1.166,1.428-1.996,3.147-3.722,4.069-.514.275-1.01.463-1.612.499-2.863.17-5.714.453-8.553.897-3.239.506-6.524.494-9.791.662-1.11.057-2.226.009-3.339.009-2.128.139-4.244-.063-6.363-.217-4.949-.36-9.867-.906-14.686-2.156-.454-.118-.777-.322-1.107-.628-1.464-1.358-2.22-2.984-2.552-4.993-.563-3.408-.941-6.819-1.07-10.265-.023-.606.044-.726.703-.499,3.421,1.179,6.934,1.949,10.54,2.354,8.575.963,17.185.753,25.778.687,5.665-.044,11.327-.701,16.653-2.935.795-.334,1.036-.222,1.006.69-.067,2.024-.02,4.052-.038,6.078ZM209.751,197.339c-.749,14.957-.28,29.925-.447,44.887-.011,1.012.003,2.024-.002,3.036-.001.3-.011.522-.414.676-3.603,1.378-7.271,2.605-11.089,3.099-3.232.418-6.519.458-9.785.537-2.8.068-5.605.016-8.404-.169-1.385-.092-2.767.085-4.148.086-5.176.004-10.303-.479-15.364-1.636-1.643-.376-3.321-.588-4.827-1.413-.207-.113-.439-.197-.612-.348-.257-.225-.283-.56-.122-.83.163-.271.431-.072.63.01,1.125.463,2.291.78,3.462,1.103.884.244.828-.094.661-.715-.345-1.282-1.02-2.424-1.514-3.642-.266-.657-.546-1.308-.822-1.96-.134-.317-.285-.648-.689-.65-.476-.003-.595.398-.7.75-.192.646-.361,1.3-.51,1.957-.104.458-.239.894-.629,1.279.183-21.438-1.966-42.844-.89-64.293.082-.01.164-.02.246-.03.159.805.294,1.615.487,2.411.089.369.099.885.629.925.433.032.613-.366.799-.684.816-1.398,1.628-2.798,2.434-4.202.358-.624.274-.987-.521-1.208-1.036-.288-2.03-.731-3.032-1.133-.275-.11-.519-.302-.766-.474-.243-.169-.395-.43-.244-.697.161-.285.418-.053.627.003,4.242,1.13,8.597,1.619,12.919,2.303,7.231,1.144,14.503,1.426,21.805,1.073,5.457-.264,10.926-.41,16.265-1.787,1.535-.396,3.043-.825,4.435-1.686-.141,1.279-.477,2.293-1.876,2.691-1.91.544-1.877.613-1.942,2.652-.046,1.44.571,2.662,1.207,4.148.519-1.15.946-2.088,1.364-3.03.164-.37.302-.751.464-1.122.093-.211.167-.528.436-.495.382.047.253.42.25.656-.031,2.363-.052,4.727-.128,7.09-.117,3.619.536,7.214.355,10.829Z"/><path class="cls-2" d="M151.78,167.044c-.233-.165-.185-.295.05-.402.084.146.05.278-.05.402Z"/><path class="cls-2" d="M151.975,165.623c-.238-.188-.157-.31.083-.4.067.153.013.281-.083.4Z"/><path class="cls-1" d="M167.211,179.87c.036-1.425.104-1.45,1.259-1.261,1.666.274,3.349.397,5.038.35.727-.02.943.203.573.874-1.01,1.83-2.042,3.644-3.424,5.233-.407.468-.9.694-1.234.112-1.007-1.753-1.629-3.674-2.212-5.308Z"/><path class="cls-1" d="M159.864,178.218c.048-1.51.162-1.575,1.361-1.268,1.267.324,2.551.583,3.822.894,1.054.258,1.196.605.676,1.58-.745,1.395-1.498,2.787-2.42,4.076-.511.715-1.112.707-1.452-.065-.677-1.539-1.293-3.106-1.912-4.67-.095-.24-.072-.527-.074-.548Z"/><path class="cls-1" d="M187.04,179.431c.791,0,1.466-.032,2.137.012.421.028.756.284.47.742-.952,1.524-1.438,3.263-2.275,4.839-.491.924-.982,1.023-1.54.172-.883-1.35-1.71-2.742-2.473-4.164-.476-.887-.152-1.332.874-1.484.972-.144,1.943-.215,2.806-.116Z"/><path class="cls-1" d="M197.837,179.758c-.358,1.938-1.193,3.688-2.223,5.346-.354.57-.858.494-1.214-.047-.85-1.292-1.709-2.582-2.492-3.915-.556-.947-.288-1.503.75-1.65,1.53-.216,3.073-.34,4.603-.554.84-.118.52.432.575.821Z"/><path class="cls-1" d="M175.471,179.872c-.079-.527.106-.765.837-.662,1.527.215,3.069.332,4.608.45.751.058,1.038.266.65,1.049-.716,1.445-1.356,2.926-2.052,4.381-.398.832-.829.867-1.4.139-1.022-1.304-1.754-2.78-2.492-4.253-.159-.317-.152-.649-.152-1.104Z"/><path class="cls-1" d="M185.463,248.428c-.538,0-1.077.004-1.615,0-1.309-.012-1.417-.049-.995-1.323.591-1.784,1.34-3.517,2.069-5.252.263-.627.843-.584,1.184.124.51,1.061.944,2.16,1.377,3.256.32.811.702,1.598.871,2.471.09.466-.01.627-.463.623-.809-.006-1.617-.002-2.426-.002,0,.034,0,.069,0,.103Z"/><path class="cls-1" d="M171.075,247.941c-1.04-.091-2.079-.193-3.119-.27-.63-.047-.661-.369-.381-.805.985-1.534,1.755-3.175,2.479-4.842.3-.691.835-.827,1.198-.224.986,1.636,1.87,3.331,2.268,5.234.153.732-.105.997-.828.947-.536-.037-1.077-.007-1.615-.007,0-.011-.001-.022-.002-.033Z"/><path class="cls-1" d="M191.408,248.265c-1.517.045-1.484.055-1.12-1.154.517-1.716,1.629-3.162,2.124-4.895.218-.761.845-.769,1.227-.058.81,1.513,1.592,3.043,2.314,4.599.21.454.17,1.037-.558,1.116-1.406.152-2.816.278-3.987.392Z"/><path class="cls-1" d="M179.521,248.292c-1.139-.163-2.488-.168-3.835-.187-.475-.007-.63-.095-.493-.65.472-1.911,1.517-3.595,2.09-5.462.08-.26.252-.498.564-.514.319-.016.468.218.584.475.757,1.689,1.559,3.359,2.258,5.072.414,1.013.134,1.314-1.168,1.266Z"/><path class="cls-1" d="M198.13,247.643c-.654.108-.707-.359-.568-.743.684-1.894,1.389-3.781,2.156-5.643.332-.805.837-.802,1.288-.038.912,1.544,1.245,3.332,2.033,4.934.188.382.057.731-.513.86-1.452.329-2.936.393-4.396.63Z"/><path class="cls-1" d="M204.499,178.283c-.018,1.279-.477,2.266-.82,3.283-.269.798-.527,1.599-.804,2.394-.115.331-.312.633-.707.621-.346-.01-.462-.298-.608-.586-.547-1.08-1.143-2.136-1.709-3.206-.237-.448-.385-.916-.415-1.439-.031-.551.165-.775.705-.866,1.159-.196,2.326-.392,3.455-.711.74-.21,1.025-.112.903.511Z"/><path class="cls-1" d="M160.883,246.672c.743-1.91,1.434-3.768,2.195-5.597.27-.648.81-.649,1.093-.005.745,1.697,1.38,3.445,1.808,5.248.231.973-.087,1.227-1.065,1.065-1.325-.22-2.647-.465-4.032-.711Z"/><path class="cls-1" d="M208.333,244.695c.167.488-.151.728-.685.883-.84.244-1.684.494-2.488.833-.815.343-.993-.029-.831-.688.391-1.601.849-3.185,1.274-4.777.13-.487.231-.983.37-1.468.068-.238.241-.41.508-.432.273-.022.433.149.559.363.242.408,1.311,4.673,1.293,5.288Z"/><path class="cls-1" d="M182.003,72.551c.316.02.45.026.583.037.558.045,1.154.134,1.156.838.001.703-.586.838-1.15.826-.566-.011-1.133-.083-1.695-.162-.367-.052-.615-.277-.619-.673-.004-.346.212-.579.522-.656.451-.112.918-.162,1.203-.21Z"/><path class="cls-1" d="M186.296,84.103c-.097-.012-.368-.025-.629-.081-.271-.058-.52-.183-.569-.499-.046-.296.086-.553.319-.7.683-.429,1.434-.402,2.124-.082.525.244.449.921-.082,1.21-.31.169-.653.143-1.163.152Z"/><path class="cls-1" d="M181.486,83.975c-.352-.047-.866.117-1-.385-.127-.475.354-.68.67-.89.495-.328,1.064-.349,1.637-.229.361.075.618.254.618.662,0,.405-.259.61-.612.677-.424.081-.858.11-1.314.165Z"/><path class="cls-1" d="M177.435,74.41c-.493-.225-1.341-.073-1.365-.894-.022-.778.688-.812,1.269-.803.584.009,1.235.067,1.216.87-.016.646-.558.761-1.12.828Z"/><path class="cls-1" d="M178.258,83.858c-.544-.052-1.071-.108-1.075-.74-.003-.56.451-.722.921-.702.479.02,1.012.116,1.011.743,0,.548-.422.712-.857.699Z"/><path class="cls-1" d="M186.48,74.226c-.669-.02-1.263-.03-1.281-.614-.019-.615.486-.915,1.106-.904.507.008.991.13.964.757-.024.576-.436.787-.79.761Z"/><path class="cls-1" d="M190.062,84.008c-.395-.042-.811-.139-.752-.608.088-.709.726-.666,1.24-.726.421-.049.781.134.734.587-.075.725-.738.626-1.222.747Z"/></svg>