<?xml version="1.0" encoding="UTF-8"?><svg id="Layer_2_copy_5" xmlns="http://www.w3.org/2000/svg" width="16.969cm" height="11.44cm" viewBox="0 0 481.013 324.283"><defs><style>.cls-1{fill:#0a0a0a;}</style></defs><path class="cls-1" d="M163.124,144.715c2.499.114,4.985-.001,7.473-.207.628-.052.879-.34.716-.917-.413-1.467-.736-2.939-.671-4.48.023-.542-.376-.78-.869-.775-.636.006-1.264-.016-1.91.085-1.977.31-3.971.347-5.967.092-.512-.065-1.039-.015-1.562-.012-1.316,2.125-1.525,4.251-2.089,6.376.133-.117.325-.193.627-.186,1.417.033,2.837-.041,4.252.023Z"/><path class="cls-1" d="M201.931,137.712c-3.487.252-6.96.756-10.548.57.291,1.174.596,2.277-.023,3.417-.676,1.245-1.874,2.033-3.295,1.792-1.418-.241-2.839-.502-4.054-1.424-1.209-.917-1.96-2.561-1.572-3.773.455-1.419,1.801-2.252,3.508-2.181,1.433.059,2.797.401,4.105.981.065-.049.13-.098.195-.147-.509-1.457-1.47-2.643-2.323-3.894-.302-.444-.464-.203-.616.119-.172.366-.322.746-.527,1.094-.425.723-.914.718-1.36-.009-.194-.316-.348-.656-.513-.989-.505-1.026-.521-1.017-1.238-.061-.405.54-.609,1.515-1.459,1.333-.896-.192-.704-1.18-.837-1.877-.157-.827-.278-1.66-.41-2.491-.04-.249.055-.527-.398-.53-1.261-.007-3.742,1.204-4.724,2.403,1.423.486,2.737,1.104,3.767,2.226.816.888,1.274,1.834.815,3.025-.529,1.374-1.615,2.121-3.004,2.132-1.724.014-3.37-.289-4.782-1.34-.684-.51-.863-.135-.919.442-.239,2.444.236,4.765,1.276,6.977.186.395.449.753.651,1.142,1.322,2.54,3.464,3.713,6.269,3.672,2.021-.03,4.017-.173,5.951-.964,1.483-.606,2.564-1.576,3.493-2.805.182-.241.374-.474.569-.704.875-1.033,1.884-1.23,3.287-1.12,3.219.251,6.466.14,9.701.169.198.002.398-.057.596-.096.328-.064.64.025.888.2-.125-2.961-.886-5.285-1.657-7.598-.004.011-.004.021-.009.033-.144.354-.522.258-.806.279ZM184.379,144.559c-.297,1.109-1.345,1.838-2.777,1.821-.748-.405-1.415-.039-2.177.523-.951.701-2.302-.014-2.609-1.315-.187-.791-.369-1.46-1.092-2.017-.786-.606-.601-2.254.151-2.802.164-.119.356-.274.548-.159.195.116.17.337.08.541-.248.562-.329,1.16.194,1.569.564.441,1.213.257,1.814-.026q1.199-.563,1.503.782c.283,1.248,1.266,1.946,2.328,1.634.493-.144.765-.498.917-.988.112-.363.322-.738.789-.582.508.17.44.61.331,1.019Z"/><path class="cls-1" d="M188.031,137.538c-.308.801-.701,1.564-.682,2.43.012.517.081,1.058.659,1.252.59.198.97-.201,1.243-.64.332-.536.596-1.114.898-1.69.61.736.741,2.025.316,2.832-.365.694-1.569,1.203-2.585.98-.885-.194-1.763-.465-2.605-.801-1.232-.492-1.73-1.55-1.836-2.794-.069-.804.813-1.798,1.695-1.88.965-.089,1.947-.109,2.896.31Z"/><path class="cls-1" d="M179.027,135.242c.95,1.354.209,2.948-1.365,3.038-1.799.103-3.459-.461-4.957-1.417-.496-.316-.803-.89-.645-1.58.229-1.001.843-1.686,1.762-2.06.897-.365,1.781-.136,2.643.224.35.146.354.358.205.634-.362.674-.293,1.442-.471,2.158-.117.468.06.891.497,1.111.483.244.948.103,1.249-.327.378-.542.692-1.13,1.082-1.78Z"/><path class="cls-1" d="M185.986,133.196c-.257-.505-.479-1.033-.78-1.511-.491-.781-.899-.796-1.489-.096-.368.436-.714.89-1.135,1.416-.541-1.053-.417-2.184-.684-3.222-.101-.392.29-.403.55-.369,1.659.214,3.109.93,4.211,2.154.534.594-.385,1.074-.673,1.628Z"/><path class="cls-1" d="M179.649,145.413c-.225.495-.533.861-1.073.807-.898-.091-1.006-.873-1.023-1.507-.019-.741.838-.615,1.156-.569.58.084.648.822.939,1.269Z"/></svg>