<?xml version="1.0" encoding="UTF-8"?><svg id="Layer_2_copy_3" xmlns="http://www.w3.org/2000/svg" width="16.969cm" height="11.44cm" viewBox="0 0 481.013 324.283"><defs><style>.cls-1{fill:#0a0a0a;}</style></defs><path class="cls-1" d="M202.644,204.483c-.701-2.09-1.525-4.178-3.232-5.65-1.507-1.3-2.788-2.815-4.305-4.109-2.828-2.413-6.026-3.891-9.64-4.63-1.213-.248-2.406-.022-3.593-.162-.908-.107-1.804-.18-2.711-.086-2.478.258-4.805,1.002-7.07,2.038-1.23.563-2.441,1.122-3.576,1.866-2.84,1.862-5.015,4.393-7.125,6.99-1.664,2.048-2.744,4.439-3.475,6.925-1.106,3.76-.706,7.648-.255,11.451.788,6.659,4.674,11.19,10.519,14.122,2.679,1.344,5.625,2.048,8.405,3.165.723.29,1.487.534,2.272.353,1.601-.37,3.23-.179,4.841-.26,3.375-.17,6.529-1.214,9.447-2.691,3.466-1.755,6.291-4.454,8.3-7.829,1.093-1.836,2.355-3.647,2.693-5.836.247-1.6.387-3.217.303-5.446.242-3.141-.623-6.707-1.798-10.212ZM193.443,203.262c-.983.822-2.117,1.276-3.233,1.613-6.844,2.068-13.511,4.662-20.333,6.789-1.474.46-2.926.977-4.387,1.471-.253.086-.467.268-.726.042,1.542-1.858,26.588-10.571,28.679-9.914ZM191.62,215.265c-.027-.264.185-.563.317-.831.453-.924.11-1.773-.23-2.622-.078-.195-.391-.392-.083-.582.211-.131.454.035.626.212.633.651,1.283,1.287,1.889,1.963.619.692,1.194,1.424,1.935,2.315-.713-.09-1.225-.184-1.74-.213-.664-.037-.989.232-.649.917.209.422.405.864.694,1.229.575.727.222.875-.475.874-.101,0-.201.014-.302.024-2.089.212-2.168.296-2.196,2.398-.876-.145-1.115-.436-.799-1.302.513-1.404,1.178-2.798,1.015-4.381ZM190.519,214.367c-.436.782-1.154,1.254-2.03,1.635.245-1.675-.043-3.21-.641-4.684-.29-.713.093-.743.594-.693,1.116.112,2.462,1.493,2.615,2.602.073.527-.337.78-.538,1.14ZM183.051,214.141c.526-1.313,1.573-2.105,2.879-2.708.21,1.829.345,3.561,1.393,5.148-.94.129-1.768.365-2.646.255-1.391-.175-2.154-1.38-1.627-2.695ZM182.57,211.869c-.505-.291-.687-.748-.914-1.145-.575-1.007-.185-1.577,1.005-1.558.482.007.478.34.422.625-.136.687-.332,1.362-.513,2.079ZM183.576,211.238q.449-1.859,2.359-.778c-.511.287-.923.502-1.317.745-.361.223-.703.477-1.057.719-.204-.271-.035-.479.015-.686ZM187.29,210.006c-.78-.009-1.563-.582-2.323-.95-.163-.079-.179-.315.086-.464,1.559-.877,4.498-.137,5.419,1.384.023.038-.024.12-.058.263-1.019-.5-2.071-.222-3.123-.234ZM170.929,220.425c.206.238.34.497.434.787.639,1.986,2.001,3.137,4.04,3.513.222.041.44.099.729.164-.832.762-1.612,1.476-2.393,2.191-.451-.595-.336-1.565-1.058-2.198-.47-.412-.695-.378-1.051.035-.427.493-.884.96-1.497,1.62-.215-1.83-.389-3.323-.568-4.816-.051-.428-.002-.926-.49-1.139-.466-.203-.73.216-1.052.435-.491.335-.983.669-1.688,1.149.601-2.407,1.314-4.521,2.326-6.47.617-1.188,1.931-1.886,3.298-2.603-.186,1.323-.182,2.46-1.08,3.43-1.099,1.185-1.016,2.667.051,3.9ZM171.072,218.819c-.139-.811.067-1.484.758-2.054,2.363-1.95,2.353-1.971,3.022.868.179.759.503,1.453.981,2.295-1.21.067-2.205.664-3.317.286-.713-.242-1.307-.6-1.443-1.394ZM174.807,211.587c-.81,1.174-1.05,2.387-2.124,3.059-.106-1.689.175-2.132,2.124-3.059ZM174.938,213.594c.395-1.871,1.039-2.862,1.937-2.668,1.017.22,1.027,1.38,1.679,2.343-1.429-.26-2.547-.358-3.617.325ZM179.76,216.12c.293,1.074-.786,2.455-2.535,3.168-.036-1.703-.304-3.342-1.005-4.963,1.91-.196,3.182.482,3.54,1.795ZM179.518,213.092c-.38-.735-.702-1.25-.915-1.806-.147-.385-.292-.891.337-1.059.337-.09.742-.435,1.017-.124.267.303.347.805.239,1.219-.141.539-.395,1.048-.678,1.77ZM180.1,226.356c-2.573.497-3.659,2.667-5.034,4.509-.02.027-.029.061-.046.09-.401.659-.652,1.858-1.197,1.881-.892.038-1.905-.132-2.815-.514-4.515-1.892-7.704-5.219-10.256-9.291-.899-1.434-1.173-2.99-1.35-4.603-.35-3.192-.599-6.386.041-9.571.384-1.911,1.133-3.675,2.301-5.241,1.904-2.553,4.097-4.842,6.476-6.955.19-.169.351-.429.659-.37.155,2.758.385,5.496.801,8.224.192,1.257.058,2.562.104,3.844.018.503-.349.585-.668.762-2.388,1.33-4.771,2.673-6.869,4.448-.494.418-1.157.841-.69,1.677.395.709,1.354.98,2.232.578,1.265-.579,2.628-.768,4.035-1.191-.336,1.559-.901,2.911-1.438,4.272-.496,1.258-.828,2.563-1.142,3.875-.069.287-.073.544.168.736.295.235.578.112.824-.097.717-.612,1.495-1.126,2.39-1.573.399,1.704.397,3.403.659,5.064.046.292-.031.644.318.791.391.165.633-.117.86-.366.562-.617,1.113-1.244,1.815-2.031.314.945.498,1.58.734,2.194.34.886.717.987,1.402.354.718-.664,1.436-1.338,2.074-2.076.485-.561.999-.835,1.746-.757.534.056,1.079-.013,1.619-.002.275.006.682-.121.658.373-.018.355.232.842-.409.966ZM177.926,223.917c-1.653-.139-3.409-.134-4.664-1.548-.089-.101-.197-.189-.27-.301-.159-.246-.474-.494-.302-.795.151-.266.49-.063.741-.058,2.533.043,4.793-.592,6.562-2.539,1.078-1.187,1.31-2.555.405-3.867-.426-.618-.376-1.059-.079-1.639.272-.532.474-1.099.769-1.799.606,1.017,1.395,1.638.961,3.027-.51,1.628.418,3.349,2.355,3.464,1.585.094,3.147.043,4.554-.904.402-.27,1.053-.7,1.407-.418.411.328-.091.918-.248,1.377-.163.476-.4.923-.483,1.431-.205,1.258-1.2,1.82-2.194,2.301-3.001,1.451-6.113,2.554-9.515,2.268ZM185.807,234.064c-.869.236-1.166.041-1.197-.876-.074-.392.098-.644.448-.801.215-.096.416-.227.638-.301,1.421-.475,2.206-1.251,2.018-2.953-.149-1.355.251-1.556,1.543-1.2.658.181.949-.081,1.088-.671.162-.688.332-1.373.493-2.061.061-.262.184-.455.48-.364.261.081.178.325.16.512-.05.534-.088,1.072-.182,1.599-.11.617-.05,1.138.562,1.466.278.149.369.386.269.679-.363,1.06-.748,2.093-2.027,2.394-1.153.272-1.99,1.095-2.921,1.751-.437.307-.824.677-1.371.826ZM199.527,224.789c-1.017,2.19-2.655,3.835-4.366,5.498-1.552,1.508-3.333,2.451-5.36,3.343.049-.917.362-1.335,1.15-1.51.91-.203,2.601-2.618,2.649-3.58.018-.353-.143-.605-.466-.696-.846-.237-.799-.88-.727-1.534.037-.334.147-.662.167-.997.04-.678.13-1.41-.819-1.578-1.014-.178-1.554.158-1.816,1.114-.071.26-.174.515-.212.78-.134.953-.373,1.692-1.625,1.274-.522-.175-.782.302-.949.718-.286.718-.537,1.45-.837,2.271-.472-.77-.609-1.57-.744-2.341-.206-1.177-.723-1.939-2.013-1.863-.501.03-.604-.174-.674-.612-.083-.515.259-.562.571-.651,1.463-.417,2.885-.944,4.243-1.628.479-.241,1.048-.456,1.355-.854.619-.802,1.176-.631,1.863-.172.345.231.718.566,1.2.267.522-.324.22-.796.176-1.194-.14-1.267-.05-1.398,1.216-1.488q2.626-.185,1.437-2.472c-.043-.082-.042-.187-.066-.308.485-.15.938.014,1.392.051.382.031.773.058.986-.33.22-.401-.042-.721-.293-.992-1.626-1.753-3.065-3.677-4.885-5.254-1.253-1.085-1.241-1.14.123-2.03,1.703-1.111,2.78-2.735,3.659-4.489.592-1.181.042-1.945-1.311-1.971-.983-.018-1.948.176-2.894.431-1.432.387-2.861.787-4.283,1.209-.29.086-.49.162-.668-.166-1.879-3.464-4.653-6.382-6.141-10.083-.114-.282-.489-.55-.17-.906.262-.293.618-.239.947-.156,7.326,1.831,13.958,4.799,18.491,11.238.655.93.739,2.006.979,3.05.727,3.158,1.341,6.313,1.398,9.591.057,3.341-1.348,6.143-2.683,9.017Z"/><path class="cls-1" d="M185.493,220.091c-.243.697-.464,1.53-1.074,2.139-.382.382-.822.161-1.178-.143-.662-.566-1.171-.684-1.652.268-.253.5-.75,1.133-1.453.733-.785-.447-1.545-1.039-1.745-1.997-.08-.386.312-.495.629-.297.252.157.452.399.668.612.768.757.898.739,1.44-.216.725-1.275.742-1.298,1.93-.423.595.438.936.376,1.159-.336.08-.255.196-.504.327-.737.125-.222.343-.35.597-.267.247.08.357.293.352.664Z"/></svg>