<?xml version="1.0" encoding="UTF-8"?><svg id="Layer_6" xmlns="http://www.w3.org/2000/svg" width="16.969cm" height="11.44cm" viewBox="0 0 481.013 324.283"><defs><style>.cls-1{fill:none;stroke:red;stroke-miterlimit:10;}</style></defs><path class="cls-1" d="M217.034,182.102v74.653c0,5.03-2.105,9.831-5.805,13.239h0c-4.12,3.795-9.516,5.901-15.117,5.901h-26.657c-5.986,0-11.757-2.231-16.187-6.258h0c-4.622-4.202-7.257-10.158-7.257-16.404v-74.695c0-3.007.22-6.01.657-8.985l1.714-11.658c1.628-11.067,4.485-21.919,8.518-32.353l5.683-14.702c2.003-5.183,3.031-10.691,3.031-16.247v-23.288c0-4.695,3.782-8.514,8.477-8.559l15.613-.152c4.978-.048,9.052,3.947,9.102,8.924l.231,22.959c0,5.205.993,10.362,2.925,15.194l4.172,10.435c4.68,13.402,7.794,27.301,9.281,41.419l1.077,10.228c.362,3.438.543,6.892.543,10.349Z"/></svg>