<?xml version="1.0" encoding="UTF-8"?><svg id="Layer_8" xmlns="http://www.w3.org/2000/svg" width="16.969cm" height="11.44cm" viewBox="0 0 481.013 324.283"><defs><style>.cls-1{fill:none;stroke:red;stroke-miterlimit:10;}</style></defs><path class="cls-1" d="M401.465,206.893l10.965,3.364c9.993,3.066,20.654,3.209,30.725.411l7.878-2.188c7.105-1.974,12.509-7.756,13.998-14.977l11.009-53.393c1.375-6.669,2.312-13.42,2.806-20.211l1.58-21.72c.506-6.963-1.167-13.911-4.787-19.88l-3.137-5.172c-3.705-6.108-8.779-11.271-14.823-15.081l-3.338-2.104c-3.283-2.069-5.227-5.72-5.113-9.598l.122-4.162c.051-1.724.946-3.313,2.393-4.25h0c2.614-1.691,4.029-4.729,3.643-7.818l-.332-2.652c-.367-2.94-2.156-5.511-4.785-6.878l-3.452-1.795c-1.279-.665-2.161-1.904-2.372-3.33l-.93-6.302c-.166-2.907-3.218-6.49-6.097-6.926l-9.97-.453c-3.37-.465-6.802-.045-9.961,1.218l-1.765.706c-3.079,1.232-5.176,4.124-5.39,7.433l-.133,2.057c-.187,2.896-1.561,5.586-3.799,7.434l-1.165.963c-2.686,2.219-4.241,5.52-4.241,9.004v3.072c0,2.438,1.023,4.764,2.821,6.412h0c1.18,1.082,1.934,2.551,2.125,4.14l.326,2.714c.331,2.758-.942,5.463-3.278,6.965l-10.458,6.726c-5.115,3.884-9.118,9.046-11.605,14.968h0c-2.868,6.827-4.415,14.137-4.56,21.54l-.259,13.194c-.197,10.044.821,20.076,3.03,29.876l12.695,56.3c1.114,4.941,4.79,8.907,9.632,10.393Z"/></svg>