<?xml version="1.0" encoding="UTF-8"?><svg id="Layer_7" xmlns="http://www.w3.org/2000/svg" width="16.969cm" height="11.44cm" viewBox="0 0 481.013 324.283"><path d="M412.417,37.05c-.831-.076-1.5-.154-2.171-.197-3.544-.222-5.976-2.789-5.716-6.312.072-.977.656-2.057,1.316-2.822,1.99-2.305,4.695-3.365,7.628-3.925.856-.164,2.032-.141,2.45-.679.398-.511.031-1.647-.059-2.503-.34-3.21-.666-6.422-1.086-9.621-.114-.871.14-1.261.868-1.696,3.816-2.282,8.118-2.608,12.351-2.895,3.082-.209,6.211.197,9.314.406,1.565.106,2.065.788,2.061,2.338-.012,4.665.015,9.33-.025,13.995-.006.755.291.96.945,1.036,1.617.188,3.263.283,4.833.674,1.297.323,2.622.845,3.704,1.608.731.516,1.209,1.547,1.54,2.444.701,1.905-.177,5.44-2.625,6.587-1.054.493-1.945,1.342-2.883,2.065-.147.114-.199.42-.205.639-.107,4.542-.203,9.085-.295,13.628-.015.75-.091,1.514.019,2.248.205,1.369,1.019,2.268,2.213,3.036,4.054,2.609,8.065,5.29,12.009,8.063,1.154.811,2.017,2.03,3.033,3.043,5.335,5.317,8.415,11.954,11.2,18.804,1.722,4.236,2.134,8.636,2.127,13.102-.011,8.093-.952,16.086-2.646,24.011-.563,2.634-.504,5.398-.769,8.098-.655,6.69-2.04,13.237-3.571,19.782-2.595,11.097-4.863,22.27-7.278,33.409-.684,3.155-1.401,6.302-2.112,9.451-.07.308-.143.644-.316.897-1.93,2.809-3.899,5.57-7.068,7.176-5.945,3.014-12.288,4.626-18.898,4.732-7.321.117-14.509-.824-21.585-3.077-4.001-1.273-7.591-3.177-11.251-5.055-.329-.169-.538-.655-.708-1.035-2.26-5.061-3.41-10.465-4.754-15.797-2.408-9.555-4.664-19.149-6.976-28.728-1.828-7.575-2.921-15.269-3.788-23.004-.618-5.509-1.5-10.992-1.985-16.511-.359-4.089-.563-8.235-.308-12.323.342-5.486.873-11.001,1.905-16.392,1.297-6.777,4.883-12.544,9.557-17.55,1.528-1.637,3.496-2.916,5.409-4.129,4.314-2.736,8.708-5.347,13.096-7.965.765-.457,1.136-.931,1.15-1.875.076-5.192.229-10.382.352-15.573.012-.51.002-1.02.002-1.61ZM414.904,36.355c0,3.603.033,6.834-.01,10.065-.035,2.635-.179,5.269-.238,7.904-.025,1.122-.377,1.936-1.428,2.528-1.563.879-3.011,1.962-4.552,2.884-5.789,3.462-11.144,7.462-15.81,12.368-3.609,3.794-5.869,8.283-7.288,13.276-2.11,7.422-2.279,15.049-2.523,22.671-.247,7.708.984,15.28,2.12,22.865,1.485,9.912,3.087,19.793,5.233,29.596,2.503,11.435,5.089,22.834,8.709,33.978.521,1.605,1.558,2.654,2.938,3.46.653.381,1.328.726,2.008,1.058,2.852,1.393,5.494,3.249,8.741,3.755,2.399.374,4.774.9,7.164,1.336,4.81.876,9.642,1.407,14.531.774,1.181-.153,2.368-.623,3.522-.537,1.692.126,3.251-.114,4.779-.762,1.542-.654,3.021-1.596,4.627-1.926,2.211-.454,3.934-1.75,5.633-2.943,1.996-1.4,3.381-3.53,4.007-5.955.938-3.629,1.736-7.294,2.589-10.944,3.052-13.057,5.818-26.169,7.904-39.421.769-4.884,1.839-9.726,2.474-14.625.61-4.707.823-9.464,1.232-14.197.213-2.462.631-4.918.671-7.381.061-3.787-.027-7.584-.237-11.367-.178-3.191-.646-6.383-2.14-9.268-1.171-2.26-2.61-4.38-3.836-6.614-5.008-9.122-12.732-15.437-21.41-20.759-.901-.553-1.434-1.23-1.928-2.154-.586-1.095-.406-2.143-.393-3.234.06-5.071.129-10.143.171-15.214.007-.81.326-1.343,1.017-1.744,1.277-.742,2.524-1.537,3.79-2.297,2.28-1.369,2.302-4.344.017-5.673-.547-.318-1.159-.53-1.748-.772-3.391-1.39-7.005-1.578-10.579-1.757-4.144-.208-8.306-.241-12.453-.12-3.062.09-6.145.367-9.159.898-2.624.462-5.24,1.241-6.758,3.835-.479.82-.988,1.62-.486,2.557.53.988,1.304,1.663,2.54,1.733.987.056,1.959.355,2.946.434,1.057.084,2.13.111,3.186.034,2.776-.202,5.545-.517,8.323-.694.985-.063,1.989.125,2.979.242.251.03.482.229.953.467-4.15.575-7.988,1.108-11.827,1.64ZM429.796,8.266c-1.29-.02-2.652-.083-4.012-.047-.832.022-1.687.101-2.486.322-2.025.561-4.033,1.188-6.021,1.866-.305.104-.666.627-.662.951.015,1.026.191,2.049.313,3.139,2.806.139,3.414-2.022,4.181-4.151,1.362,1.386.413,2.537.104,3.635,2.098,1.154,2.409,1.644,1.761,3.04-1.508-2.763-3.568-1.871-5.757-.852.465,1.851.9,3.789,1.47,5.686.117.39.709.818,1.14.893.818.142,1.679.041,2.616.041-.136-.247-.204-.384-.284-.515-.976-1.581-.079-4.016,1.7-4.611.984-.329,2.453.037,2.942.825.173.279.096.714.132,1.077-.349-.016-.826.108-1.024-.073-.775-.709-1.475-.724-2.185.021-.734.771-.851,1.568-.091,2.423.631.71,1.301,1.248,2.339,1.17.754-.057,1.521-.048,2.274.016.719.061.977-.248,1.289-.881.337-.683.927-1.426,1.594-1.728,1.793-.81,3.582.321,4.318,2.542,1.846.107,2.616-1.538,2.075-4.688-.96,1.167-2.204.946-3.42.949-1.75.005-2.906-.947-3.104-2.648-.202-1.734,1.04-3.806,2.464-4.083.269-.052.597-.103.824.003.285.132.495.427.738.651-.254.174-.491.46-.765.503-1.143.178-1.87.875-2.041,2.12-.125.908.108,1.679,1.018,2.083.959.426,2.787.144,3.187-.636.353-.689.695-1.594.537-2.289-.305-1.339-.327-1.587.914-2.022v-4.073c-2.271-.124-4.458-.243-6.894-.376.318.536.449.926.714,1.172,1.283,1.196,2.51-.328,3.984-.217-.674,1.845.703,2.061,1.877,2.422-.889.969-1.796.932-2.709.068-.298-.282-.763-.586-1.131-.563-2.454.155-3.352-.477-3.919-3.168ZM433.82,23.076c.065-.136.131-.272.196-.408-.684-.341-1.358-.923-2.054-.948-.564-.021-1.153.626-1.731.977.066.127.132.253.198.38h3.39Z"/><path d="M424.964,123.344c-2.562-2.87-4.979-5.579-7.398-8.286-.904-1.012-1.751-2.086-2.736-3.014-1.402-1.321-3.078-1.899-5.067-1.901-1.112-.001-2.322-.449-3.308-1.01-1.089-.619-2.129-1.478-2.892-2.464-.534-.69-.797-1.773-.777-2.671.038-1.754.695-3.349,2.033-4.585.059-.054.129-.1.175-.163,2.093-2.869,5.246-3.138,8.395-3.502.68-.079,1.479-.43,1.932-.923,1.099-1.195,2.295-2.207,3.942-1.588,1.909.717,3.139,2.191,3.301,4.322.109,1.429-.021,2.885.182,4.296.251,1.748.523,3.55,1.188,5.163.496,1.203,1.617,2.153,2.482,3.197,1.549,1.871,3.115,3.728,4.71,5.635.183-.15.32-.229.414-.344,3.266-3.98,6.544-7.95,9.768-11.963.384-.478.629-1.187.662-1.804.126-2.336.743-4.514,2.121-6.385.582-.791,1.448-1.621,2.346-1.886,3.225-.952,4.959,0,5.529,3.337.472,2.761,2.17,4.013,4.468,4.862,1.138.421,1.776,1.106,1.866,2.348.093,1.272.296,2.537.439,3.806.162,1.434-.752,2.915-2.178,3.04-1.845.161-3.749.217-5.57-.061-1.817-.278-3.308.101-4.468,1.38-2.817,3.105-5.554,6.284-8.275,9.474-.637.747-.679,1.517.126,2.392,3.268,3.559,6.497,7.157,9.638,10.827,1.487,1.738,3.365,2.389,5.502,2.672.907.12,1.815.295,2.697.538.949.262,1.534.902,1.371,1.949-.213,1.371-.444,2.744-.785,4.086-.1.396-.544.773-.924,1.012-.534.337-1.132.635-1.743.777-1.383.322-2.045,1.02-2.067,2.539-.02,1.365-1.522,1.979-3.237,1.781-2.401-.277-3.505-1.527-4.1-3.875-.441-1.743-1.525-3.427-2.662-4.87-2.765-3.51-5.725-6.867-8.612-10.281-.486-.575-.997-1.13-1.555-1.759-2.92,3.121-5.889,6.112-7.813,9.859-1.209,2.354-2.042,4.913-2.911,7.426-.854,2.472-3.772,4.696-6.378,4.719-.77.007-1.225-.27-1.631-.937-.849-1.395-1.84-2.703-2.716-4.083-.583-.919-1.344-1.203-2.413-1.148-2.101.107-4.065-.279-5.443-2.106-.165-.219-.408-.423-.469-.67-.247-1.002,1.654-4.212,2.68-4.439,1.751-.388,3.542-.605,5.277-1.05.841-.216,1.75-.626,2.355-1.225,3.521-3.479,6.955-7.045,10.433-10.566.608-.615,1.288-1.159,2.095-1.878ZM452.379,101.834c-.107.048-.214.096-.322.144.569.961,1.166,1.906,1.689,2.891.177.334.164.768.238,1.157-.397-.071-.893-.015-1.175-.234-1.158-.903-1.708-2.175-1.93-3.603-.287-1.849-.518-3.709-.887-5.541-.168-.834-.45-1.845-1.596-1.793-1.225.055-2.649.149-3.209,1.412-.753,1.699-1.419,3.5-1.714,5.323-.349,2.159-1.051,3.979-2.532,5.636-3.245,3.632-6.305,7.429-9.509,11.099-5.355,6.134-10.545,12.418-16.586,17.928-1.966,1.793-3.836,3.409-6.739,2.46-.254-.083-.556-.034-.835-.021-1.419.067-2.363.832-2.809,2.188-.249.756-.181,1.126.748,1.294,2.582.467,5.156,1.001,7.698,1.645.618.156,1.142.799,1.626,1.298.138.142-.015.567-.035.863-.288-.023-.611.029-.858-.085-.43-.199-.812-.5-1.215-.759-.131.095-.262.19-.393.284.442.985.763,2.057,1.378,2.919.309.432,1.168.701,1.754.663,1.822-.119,3.88-2.445,4.46-4.166.896-2.659,1.904-5.329,3.274-7.764,1.12-1.99,2.781-3.692,4.3-5.438,6.001-6.899,12.049-13.757,18.061-20.647,1.842-2.111,3.045-2.519,5.687-1.527,1.486.558,2.905.432,4.32-.056,1.109-.382,1.784-1.24,1.833-2.426.052-1.237.085-2.574-1.143-3.327-1.138-.698-2.385-1.218-3.584-1.817ZM413.784,97.109c-2.624.396-5.066.726-6.683,2.942-.253.346-.662.574-.974.881-1.946,1.912-1.833,4.37.299,6.019,1.151.89,2.271,1.546,3.93,1.586,1.69.041,3.683.584,4.965,1.622,2.144,1.738,3.84,4.034,5.703,6.113,1.645,1.837,3.262,3.699,4.953,5.62,1.369-1.616,2.672-3.154,4.003-4.726-.139-.19-.246-.354-.37-.503-2.414-2.92-4.857-5.817-7.223-8.775-.498-.623-.934-1.446-1.02-2.219-.257-2.328-.317-4.678-.478-7.018-.038-.554-.097-1.125-.272-1.647-.73-2.185-2.629-2.672-4.242-1.092-.325.319-.585.736-.777,1.153-.468,1.013-.862,2.059-1.318,3.078-.441.986-1.285,1.403-2.311,1.397-.286-.001-.655-.252-.817-.498-.076-.116.199-.669.401-.727,1.569-.457,1.652-1.887,2.231-3.206ZM452.642,144.489c.115.099.231.198.346.297.874-.647,2.277-.503,2.623-1.941.766-3.174,1.085-2.804-2.218-3.625-.154-.038-.319-.035-.473-.072-2.125-.515-4.094-1.313-5.633-2.958-1.358-1.451-2.75-2.871-4.127-4.304-1.687-1.755-3.372-3.512-5.063-5.263-.707-.732-1.428-1.45-2.196-2.229-1.127,1.322-2.079,2.44-2.957,3.47,2.762,3.362,5.331,6.733,8.164,9.865,2.572,2.844,5.045,5.638,5.788,9.58.239,1.269,1.567,1.035,2.496,1.174.918.137,1.068-.655,1.212-1.325.193-.893.35-1.794.526-2.691.241-1.23.738-2.297,1.999-2.765.283-.105.659.04.992.071-.092.306-.13.643-.288.91-.367.62-.791,1.206-1.192,1.805Z"/><path d="M414.704,171.006c2.7,1.827,4.535,4.344,5.947,7.211.246.5.594.95.835,1.452.449.934,1.038,1.242,1.988.635.607-.388,1.373-.444,1.592.318.125.436-.223,1.259-.621,1.551-1.639,1.204-3.404.797-4.502-.905-1.489-2.308-2.935-4.644-4.478-6.915-.644-.948-1.529-1.696-2.995-1.902.307,1.324.566,2.471.839,3.615.4,1.677.873,3.386-.116,4.99-.424.688-1.089,1.248-1.72,1.776-.185.155-.631-.002-.958-.016.055-.278.033-.608.178-.826.788-1.191,1.034-2.454.679-3.843-.739-2.895-1.493-5.787-2.168-8.697-.119-.514-.061-1.242.232-1.63.3-.397.987-.639,1.514-.657.204-.007.491.768.642,1.22.209.628.326,1.288.51,2.046,1.463-.789,2.442-1.854,3.099-3.206.428-.881.153-1.492-.8-1.878-1.821-.738-3.474-.054-5.071.618-1.387.583-2.65,1.457-3.991,2.158-.267.14-.862.195-.922.084-.163-.303-.206-.736-.13-1.08.062-.278.324-.566.573-.74,1.243-.864,2.42-1.913,3.793-2.482,2.133-.883,4.462-.96,6.697-.36,2.233.6,2.886,2.932,1.469,5.037-.59.877-1.392,1.611-2.114,2.429Z"/><path d="M447.074,170.601c-.102,1.307-.214,2.287-.249,3.271-.099,2.814-1.265,5.184-3.149,7.177-.587.622-1.52.969-2.355,1.277-.316.117-.803-.23-1.212-.366.268-.343.486-.745.813-1.016.69-.574,1.489-1.022,2.149-1.625,1.131-1.034,1.097-2.507,1.284-3.88.327-2.408.656-4.816.96-7.227.102-.806.445-1.341,1.291-1.485.889-.152,1.47.241,1.819,1.016.47,1.045.91,2.103,1.447,3.349,1.436-2.018,2.792-3.922,4.146-5.829.115-.162.174-.43.323-.491.479-.197,1.008-.47,1.478-.409.237.031.581.737.547,1.108-.221,2.421-.539,4.832-.813,7.248-.11.971-.189,1.946-.283,2.92.098.033.196.065.294.098.282-.39.499-.865.866-1.143.291-.221.874-.387,1.125-.238.245.145.44.841.298,1.088-.49.851-1.026,1.746-1.766,2.356-.435.358-1.356.419-1.937.234-.746-.238-.942-.927-.811-1.83.358-2.475.544-4.975.813-7.609-1.139,1.408-2.156,2.721-3.233,3.982-1.161,1.359-1.841,1.307-2.871-.179-.315-.455-.535-.976-.975-1.795Z"/><path d="M428.394,169.073c-.296,2.816.899,4.532,2.902,5.763,1.457.895,3.413.532,4.558-.766,1.033-1.171,1.761-2.455,1.593-4.107-.061-.596-.082-1.305.818-1.275.763.025,1.105.495,1.11,1.27.012,1.967-.376,3.815-1.632,5.38-2.292,2.856-6.846,2.662-9.181-.033-1.662-1.918-2.18-4.221-1.862-6.709.047-.367.284-.756.542-1.034.177-.191.559-.305.817-.262.145.024.294.43.321.677.05.473.015.955.015,1.095Z"/><path d="M408.747,64.772c.301.454.727.86.834,1.337.078.349-.15.928-.438,1.172-1.761,1.491-3.553,2.949-5.406,4.324-.278.206-1.104.076-1.354-.195-.251-.272-.292-1.037-.083-1.372.456-.732,1.071-1.393,1.726-1.965,1.08-.942,2.23-1.806,3.377-2.668.306-.23.705-.337,1.345-.631Z"/><path d="M413.921,29.51c-.066-.058-.613-.313-.652-.629-.04-.331.37-1.001.652-1.041,2.226-.312,4.466-.545,6.709-.702.321-.022.68.498,1.021.768-.32.28-.612.758-.965.808-2.117.305-4.248.512-6.765.796Z"/><path d="M420.978,42.065c-.108.988-.119,2.001-.365,2.954-.123.476-.674.841-1.031,1.256-.356-.417-1.021-.84-1.013-1.249.037-1.7.23-3.402.487-5.085.047-.31.679-.764,1.001-.733.308.03.724.568.808.946.135.607.036,1.267.036,1.905l.078.008Z"/><path d="M462.631,83.188c.015.95-.996,1.591-1.589.899-.978-1.142-1.772-2.489-2.406-3.86-.328-.71.595-1.317,1.368-1.004.923.373,2.61,2.919,2.626,3.964Z"/><path d="M396.717,78.17c-.903-.004-1.571-.836-1.088-1.633.551-.909,1.355-1.741,2.225-2.356.723-.511,1.719.246,1.732,1.15.015,1.052-1.795,2.842-2.87,2.838Z"/><path d="M434.606,28.844c-.792,0-1.599.092-2.369-.039-.378-.064-.686-.54-1.025-.83.361-.247.71-.681,1.086-.706,1.341-.09,2.697-.113,4.035-.002.405.034.766.585,1.148.899-.404.214-.787.529-1.217.616-.533.108-1.103.026-1.658.026v.038Z"/><path d="M451.477,70.817c.151.074.481.156.703.357.68.613,1.386,1.219,1.939,1.938.211.274.178.94-.02,1.252-.131.206-.902.286-1.129.103-.862-.696-1.689-1.464-2.39-2.319-.476-.581-.002-1.322.898-1.331Z"/><path d="M465.671,89.41c-.193.155-.514.605-.915.692-.637.139-1.777-1.388-1.585-2.215.098-.421.603-.956,1.014-1.051.732-.169,1.526,1.124,1.486,2.573Z"/><path d="M392.578,83.533c-.012-1.505.773-2.538,1.617-2.356.4.086.922.625.989,1.026.16.949-.797,2.156-1.556,2.026-.452-.078-.837-.545-1.051-.696Z"/><path d="M418.258,50.608c.752-.629,1.166-1.246,1.676-1.341.84-.156,1.15.578,1.131,1.312-.019.728-.195,1.612-1.114,1.48-.521-.075-.95-.783-1.694-1.451Z"/><path d="M415.624,69.839c-.13,1.351-.998,2.344-1.732,2.14-.34-.095-.845-.841-.793-.906.537-.673,1.158-1.284,1.815-1.843.044-.038.565.483.709.609Z"/><path d="M389.13,91.733c.789-.532,1.252-1.004,1.794-1.129.209-.048.857.693.853,1.069-.008.725-.424,1.471-1.326,1.292-.397-.079-.701-.63-1.321-1.233Z"/><path d="M414.081,62.48c-.759.602-1.208,1.092-1.765,1.315-.156.063-.957-.907-.9-.983.389-.521.894-.984,1.447-1.327.108-.067.591.471,1.218.995Z"/><path d="M410.097,78.674c-.678.597-1.127.993-1.576,1.388-.29-.401-.75-.77-.831-1.209-.131-.713.313-1.3,1.071-1.233.374.033.706.534,1.336,1.054Z"/><path d="M426.677,29.074c-.408-.494-.672-.815-.937-1.136.374-.236.75-.658,1.12-.652.319.006.629.499.942.777-.316.284-.633.568-1.125,1.01Z"/><path d="M390.821,100.214c-.629.403-.982.796-1.338.799-.238.002-.684-.565-.665-.852.019-.293.477-.754.773-.778.296-.024.629.4,1.23.831Z"/><path d="M411.152,29.809c-.436.329-.677.645-.939.665-.194.014-.605-.384-.582-.553.037-.271.32-.657.56-.709.213-.046.509.298.961.597Z"/><path d="M428.557,12.89c-.973,1.009-2.021.991-2.934.044-.931-.965-1.12-2.73-.337-3.374.154-.127.441-.18.637-.135.124.028.306.337.267.459-.664,2.092.722,2.654,2.367,3.006Z"/><path d="M427.667,18.987c-.755-.313-.703-1.068-.448-1.635.305-.679.884-1.234,1.345-1.842.115.241.384.539.319.712-.339.897-.763,1.761-1.216,2.766Z"/><path d="M418.335,19.027c.954.411,1.645.709,2.429,1.047-1.173.761-1.858.499-2.429-1.047Z"/><path d="M443.057,108.549c-.054.179-.059.314-.126.403-1.005,1.33-1.992,2.675-3.056,3.957-.166.2-.686.106-1.043.147,0-.327-.138-.758.02-.963.989-1.29,2.027-2.545,3.094-3.772.158-.182.557-.2.843-.197.098,0,.193.298.268.425Z"/><path d="M446.148,97.949c.629-.52,1.105-.95,1.637-1.294.047-.031.707.624.65.734-.363.694-.849,1.324-1.294,1.974-.269-.383-.537-.765-.993-1.414Z"/><path d="M430.513,122.726c-.105-1.166.735-1.807,1.509-2.459.126-.106.552-.076.635.039.132.183.216.593.105.728-.58.703-1.228,1.349-1.853,2.015-.132-.107-.264-.215-.395-.322Z"/><path d="M436.282,117.273c-.526.361-.834.628-1.191.772-.079.032-.515-.501-.478-.554.226-.319.514-.621.847-.817.089-.052.409.29.821.599Z"/><path d="M418.793,107.828c1.39.245,3.025,2.297,2.878,3.612-1.224-.109-2.943-2.266-2.878-3.612Z"/><path d="M418.696,97.675c-.709.618-1.199,1.076-1.743,1.458-.043.03-.652-.463-.668-.732-.048-.81.422-1.37,1.249-1.416.282-.016.585.332,1.163.69Z"/><path d="M426.178,114.202c-.534.379-1.016.792-1.065.745-.451-.426-.861-.911-1.186-1.438-.045-.074.605-.71.644-.682.505.36.957.795,1.607,1.375Z"/></svg>